Patient4_TMGait_0pt8_01_left_16_EMG.mot
version=1
nRows=40
nColumns=33
inDegrees=no
endheader
time	1LAddLong	2LGlutMax	3LGlutMed	4LIliopsoas	5LSemiMemb	6LBicFemLong	7LRecFem	8LVastMed	9LVastLat	10LGasMed	11LTibAnt	12lTibPost	13LPeroneusLong	14LSol	15LExtDigLong	16LFlexDigLong	17RAddLong	18RGlutMax	19RGlutMed	20RIliopsoas	21RSemiMemb	22RBicFemLong	23RRecFem	24RVastMed	25RVastLat	26RGasMed	27RTibAnt	28RTibPost	29RPeroneusLong	30RSol	31RExtDigLong	32RFlexDigLong
17.12	0.011749	-0.23819	-0.014496	-0.009766	-0.007019	0.010986	0.12817	0.007477	0.30945	-0.050354	-0.087738	0.001526	-0.001373	-0.039978	-0.11597	0.019836	-0.005951	-0.30136	-0.32364	0.12863	0.18738	0.019531	0.13001	-0.067291	0.019073	0.011444	-0.92865	-0.13397	-0.074158	-0.06958	-0.00061	-0.011292
17.121	0.011902	-0.24826	0.002899	-0.012207	0.000916	0.029907	0.13031	0.005341	0.31235	-0.027313	-0.082092	-0.003815	0.043945	-0.019226	-0.15884	0.003967	-0.020142	-0.30609	-0.034332	0.076141	0.24719	-0.086365	0.099792	-0.050659	0.034943	-0.020752	-0.24811	0.074463	-0.069885	0.19196	0.001678	-0.003815
17.122	0.007019	-0.23743	0.007477	-0.0177	-0.010376	0.010986	0.11337	0.009613	0.31235	-0.00824	0.063934	-0.010223	0.03006	-0.015106	0.060425	0.016632	-0.020142	-0.27924	0.042877	0.040436	0.14694	-0.12756	-0.0383	-0.19653	-0.058441	-0.014801	0.27237	0.024414	-0.019836	0.30182	-0.00351	-0.008087
17.123	0.007019	-0.20905	0.024261	-0.011597	-0.00061	0.005188	0.10315	0.001221	0.33798	0.002441	0.095825	-0.004425	-0.011902	-0.031433	0.13565	0.00946	-0.01236	-0.34622	0.1297	0.039673	0.026855	-0.080719	-0.08606	-0.1796	-0.26047	0.01236	0.11337	0.00473	0.071411	0.18814	-0.002289	-0.00885
17.124	0.007324	-0.20447	0.02655	0.003662	0.00412	-0.00351	0.090332	0.006256	0.33356	-0.007935	0.094604	0.007782	0.008545	-0.002441	-0.037537	0.024109	0.007629	-0.36316	0.33173	0.003204	-0.006104	-0.022583	0.063629	-0.10529	-0.18417	-0.010834	0.12787	-0.000916	-0.022278	-0.015564	-0.001221	-0.011597
17.125	0.008087	-0.16815	0.011902	0.007629	0.007172	0.005951	0.069733	0.009613	0.34531	-0.027161	-0.000458	0.002441	0.024261	-0.005035	0.053406	0.008087	0.000763	-0.32715	0.23483	-0.003662	0.081177	-0.08606	0.037994	-0.078278	-0.028076	-0.040741	0.18875	-0.013275	-0.10117	-0.24338	-0.001984	-0.010071
17.126	0.008545	-0.12894	0.001526	-0.000458	0.008698	0.030975	0.070953	0.012207	0.34241	0.032349	-0.067749	0.001373	0.024414	-0.082703	0.24857	0.014191	0.010681	-0.3331	0.083313	-0.008698	0.20615	-0.19012	-0.027008	-0.082245	0.037384	-0.048676	-0.29022	-0.002594	0.036621	-0.40039	-0.001831	-0.008087
17.127	0.009918	-0.092316	-0.030365	-0.018311	-0.006409	0.013428	0.045776	0.009155	0.3186	0.035706	-0.048523	0.002899	0.038147	-0.094604	0.2832	0.014343	0.015259	-0.35751	-0.15976	-0.06012	0.060272	-0.1651	-0.17197	-0.041199	-0.020599	-0.048218	-0.32486	-0.011749	0.21439	-0.22369	0.004272	-0.007629
17.128	0.010529	-0.06485	-0.015717	0.004578	-0.006256	-0.006866	0.052948	0.013123	0.34027	0.040741	-0.061493	0.005341	0.005341	-0.064087	0.15701	0.012817	-0.009918	-0.36026	0.018616	-0.050812	-0.16342	-0.018005	-0.27268	-0.020752	0.04715	-0.016022	0.072327	-0.005798	0.14908	0.11658	0.002747	-0.010071
17.129	0.009155	0.007935	-0.019684	0.022888	-0.012817	0.014648	0.077209	0.017548	0.35339	0.017242	-0.067596	0.002594	0.013885	-0.047302	0.081787	0.011597	-0.002441	-0.28885	0.088501	-0.047302	-0.29388	0.071259	-0.13062	0.071716	0.10742	0.013733	0.3479	-0.00473	0.18036	-0.040283	-0.002289	-0.014191
17.13	0.001831	0.029907	-0.02182	0.029297	-0.011444	0.000916	0.054321	0.012512	0.31616	-0.001984	-0.000305	-0.00412	0.004272	-0.032043	-0.020905	0.018768	-0.013275	-0.32028	0.035553	-0.028534	-0.12817	0.064545	-0.018005	0.03067	0.19623	-0.014343	0.30716	-0.002136	0.072784	-0.16266	-0.000916	-0.002594
17.131	0.007629	0.025024	-0.024414	0.019836	-0.002441	-0.018158	0.033112	0.010223	0.31128	-0.061951	-0.098572	-0.001526	-0.047607	-0.003662	-0.04303	0.022278	-0.015259	-0.31006	0.26245	-0.007782	0.016785	0.031281	-0.054321	0.062866	0.11551	-0.072479	0.20309	0.010223	-0.29129	-0.28381	0.010223	-0.006561
17.132	0.018005	-0.002289	-0.046082	0.007629	0.014038	-0.019836	0.026245	0.003815	0.34851	-0.08667	-0.036621	-0.000153	-0.070953	-0.009003	-0.10025	0.010834	-0.002747	-0.31662	0.034027	-0.026855	0.15213	-0.013885	-0.061646	0.052032	0.030823	-0.085602	-0.11154	-0.009918	-0.20523	0.092621	-0.002899	-0.005035
17.133	0.01297	-0.027313	-0.028076	0.000763	0.006256	-0.04303	0.001526	0.007629	0.31082	-0.084534	0.046692	0.000916	0.008087	-0.011139	-0.16144	0.007477	-0.00885	-0.31464	-0.098419	-0.070801	-0.035248	0.016632	-0.037537	0.054169	0.076141	-0.058136	-0.27786	-0.008392	-0.17334	0.41321	-0.003357	-0.00412
17.134	0.010834	-0.013885	-0.019989	0.010529	-0.001831	-0.034485	0.033875	0.006256	0.31281	-0.04837	0.056	-0.005341	0.081787	-0.00946	-0.12497	-0.003967	0.011902	-0.22934	-0.11704	-0.06134	-0.072937	0.003662	0.042267	-0.026245	0.049744	-0.070343	-0.23865	-0.013123	-0.18692	0.54291	-0.00061	-0.006561
17.135	0.011292	-0.014343	-0.014496	0.01236	0.003052	-0.049744	0.000916	0.005035	0.29892	-0.029602	0.088806	-0.003662	0.1294	-0.080109	0.020599	0.00885	0.019989	-0.19516	0.043182	-0.035858	0.075989	-0.045776	0.012512	-0.008087	0.071411	-0.084534	-0.19928	-0.016022	0.013275	0.25269	0.001221	-0.00946
17.136	0.008087	0.017853	-0.031128	0.013123	0.011444	-0.03418	-0.018005	0.006409	0.28732	-0.016785	0.068817	0.000916	0.099335	-0.093384	-0.013428	0.005341	0.009155	-0.22034	0.07782	0.033569	0.088806	-0.012817	0.0737	0.02182	0.037689	-0.066528	-0.34836	0.037689	0.088348	-0.35523	-0.000305	-0.018921
17.137	0.01236	0.061035	-0.03479	0.010223	0.006409	-0.032959	-0.016327	0.00885	0.27679	-0.03067	0.02594	-0.008087	0.09491	-0.069427	-0.062866	-0.002899	-0.019073	-0.20081	0.33142	0.082092	0.023499	0.070801	0.062103	0.0354	0.005341	-0.019073	-0.23163	-0.019836	-0.048676	-0.56686	0.000153	-0.023499
17.138	0.015106	0.040741	-0.036316	0.010529	0.006104	-0.039215	-0.022736	-0.003052	0.27161	-0.026855	-0.027771	0.000153	0.11063	-0.068207	-0.015259	-0.00351	-0.013428	-0.2327	-0.073395	0.12894	-0.24262	0.075684	0.084991	0.009155	-0.004272	0.081024	0.23956	-0.08255	-0.037994	-0.11154	-0.008087	-0.018463
17.139	0.016174	0.088501	-0.045319	0.016022	0.002289	-0.050507	-0.037537	-0.00473	0.27924	-0.028534	-0.024414	0.003662	0.054169	-0.02121	0.02182	0.003662	-0.024719	-0.17227	-0.15686	0.094452	-0.17288	0.050201	0.003204	-0.027924	0.053253	0.10757	0.52292	-0.011444	0.003662	0.62012	-0.001831	-0.025787
17.14	0.011444	0.13931	-0.040283	0.012207	-0.00824	-0.043945	-0.064087	0.002747	0.26733	-0.022583	0.002136	-0.005951	-0.004578	-0.005493	0.089722	-0.005493	0.001831	-0.14481	0.060577	-0.005188	-0.071411	0.015259	-0.00351	-0.061951	0.13886	0.054779	0.56992	-0.016632	-0.11475	1.0657	-0.003662	-0.011597
17.141	0.011597	0.18967	-0.036011	0.010376	0.012512	-0.022278	-0.031738	-0.004425	0.25894	-0.050201	0.035095	-0.004578	-0.014191	0.038605	0.075073	-0.00473	0.005188	-0.14999	0.34622	-0.013123	-0.027924	0.054016	-0.044556	-0.005798	0.065765	0.006866	0.18265	0.053101	-0.38559	0.46829	-0.00885	-0.011597
17.142	0.011597	0.25589	-0.040436	0.011902	0.004578	-0.041351	-0.047302	0.002289	0.25116	-0.046539	0.016632	-0.004272	0.011597	0.020447	0.0354	-0.001831	0.007477	-0.1593	0.56732	0.043793	0.13443	0.0177	-0.11719	0.025024	0.030823	-0.000305	-0.50522	0.07019	-0.39688	-0.19409	-0.003967	-0.008545
17.143	0.015869	0.31036	-0.054016	0.001526	-0.001373	-0.035553	-0.054779	0.004578	0.23407	-0.053711	0.022888	-0.006256	0.037994	-0.080109	0.036469	-0.006561	0.040894	-0.18982	0.26169	0.008087	0.12192	-0.13245	-0.14862	0.013428	0.045166	0.001373	-0.68619	0.008392	-0.36301	-0.34103	0.000458	-0.010071
17.144	0.022278	0.36957	-0.045776	0.009613	0	-0.025482	-0.046844	0	0.24063	-0.05188	0.017548	-0.007477	0.029449	-0.13611	0.035858	-0.001068	0.021362	-0.19226	0.00412	0.032043	0.049896	-0.17944	-0.14175	-0.009613	0.04364	0.012817	-0.63156	-0.073395	-0.28046	-0.18616	-0.002441	-0.01358
17.145	0.020294	0.40924	-0.056305	0.019989	0.00946	-0.030518	-0.04303	-0.001068	0.23331	-0.068359	0.002594	-0.008698	0.02121	-0.074921	0.032654	-0.006714	-0.033112	-0.18723	0.13168	0.040283	-0.053406	-0.05249	-0.24918	-0.066071	0.027161	-0.00061	-0.35934	-0.16113	0.20966	0.058136	0.000305	-0.009308
17.146	0.022278	0.41229	-0.041504	0.008087	0.023193	-0.030212	-0.027008	0.002441	0.22308	-0.060883	0.001678	-0.000763	0.033112	-0.039215	0.016785	0.005798	-0.07309	-0.20386	0.177	0.053406	-0.25543	0.13046	-0.2652	-0.11047	-0.018005	-0.024872	0.34592	-0.00351	0.26321	0.21835	-0.002747	-0.007935
17.147	0.019836	0.42129	-0.010529	0.006561	0.018768	-0.010223	-0.026398	0.001221	0.21637	-0.033112	0.008698	0.001831	0.013428	-0.071411	-0.013733	-0.008087	-0.03418	-0.20645	0.36438	0.021362	-0.20065	0.1503	-0.11551	-0.006104	-0.023041	0.024567	0.50293	0.12299	0.14862	-0.070038	-0.004883	-0.013733
17.148	0.013885	0.40344	-0.01358	0.011139	0.008392	-0.007019	-0.023651	0.006256	0.20752	-0.018616	0.020294	-0.005341	0.022125	-0.039978	-0.016937	0.00351	-0.011902	-0.24017	0.49118	-0.048065	-0.02594	0.070343	0.051727	-0.007935	0.047607	0.0177	0.9021	0.17716	-0.05722	-0.22858	-0.006104	-0.013733
17.149	0.007019	0.41534	-0.027008	-0.003357	-0.011444	-0.014801	-0.026398	0.003967	0.20142	-0.018311	0.026245	-0.008698	0.014038	-0.033875	-0.010223	0.000153	0.003662	-0.27268	0.38864	-0.048828	0.13412	-0.022278	0.084534	-0.023651	0.37643	-0.003052	0.62698	0.060883	-0.016937	0.069885	-0.006256	-0.004883
17.15	0.02121	0.4097	-0.026398	0.005951	-0.01709	-0.07431	-0.024261	-0.002747	0.20264	-0.041046	0.023193	-0.007019	0.037842	-0.031891	0.004272	-0.00412	0.007629	-0.19302	0.052032	-0.014801	0.1091	0.002594	0.11154	-0.007782	0.39108	-0.011597	0.020905	0.010223	0.029907	0.14084	-0.003052	-0.005646
17.151	0.014038	0.38132	-0.036774	0.011597	0.001373	-0.092468	-0.022125	-0.004272	0.18463	-0.064697	0.018005	-0.002441	0.02655	-0.029144	0.007782	0.000916	0.015106	-0.25971	0.04776	0.020752	0.10483	0.045013	0.20859	-0.017853	0.26672	-0.012207	0.033112	-0.011597	0.041046	-0.14969	0.001221	-0.015564
17.152	0.027161	0.35843	-0.029297	-0.000916	0.018616	-0.079041	-0.028839	-0.001678	0.1915	-0.075836	0.002289	-0.006256	0.029755	-0.05188	0.000916	-0.008087	0.02594	-0.28839	0.090027	0.026855	0.061188	-0.060883	0.13351	-0.1738	0.10407	0	0.23407	-0.004578	0.041199	-0.48889	-0.001678	-0.017395
17.153	0.018158	0.34363	-0.03479	-0.009613	0.022888	-0.075378	-0.023193	-0.000458	0.19043	-0.055847	-0.019684	-0.015869	0.045471	-0.029755	0.001526	-0.011749	-0.000153	-0.24674	0.47028	0.015869	-0.00824	-0.11932	-0.24399	-0.19516	0.039978	-0.003815	0.013885	-0.016174	-0.053406	-0.55771	-0.009155	-0.018005
17.154	0.020447	0.29984	-0.027618	-0.005646	0.00061	-0.090332	-0.031891	0.000763	0.19028	-0.032043	-0.025635	-0.006104	0.020752	-0.036621	-0.002594	0.004578	0.000916	-0.19073	0.19836	-0.006561	-0.13153	-0.13977	-0.41733	-0.005493	-0.24643	-0.006561	-0.57632	-0.019684	0.17914	-0.15076	-0.004272	-0.018921
17.155	0.019989	0.2124	-0.054016	0.006104	0.006409	-0.088806	-0.047455	0	0.1738	-0.035858	-0.010376	-0.006256	0.028534	-0.027618	-0.005646	0.000305	0.032196	-0.24323	-0.11887	-0.004425	-0.10559	-0.14297	-0.32791	-0.11536	-0.56976	-0.017853	-0.64789	-0.023499	0.18433	0.14542	-0.001678	-0.016022
17.156	0.04715	0.15961	-0.059662	-0.002136	0.011749	-0.074921	-0.018311	0.005493	0.15747	-0.042725	0.011749	-0.004578	0.06134	-0.037842	0.000305	0.003967	0.04364	-0.25528	0.47745	-0.010986	0.028992	-0.17838	-0.34073	-0.049286	-0.6842	-0.007629	-0.33508	-0.019989	0.047913	0.27924	-0.003052	-0.007935
17.157	0.10437	0.15686	-0.054169	0.018463	0.001678	-0.063324	-0.005341	0.008087	0.1564	-0.035248	0.000153	-0.00351	0.063477	-0.054321	0.007477	-0.007629	0.061798	-0.21225	0.73059	0.003052	-0.016479	-0.16922	-0.28336	0.013885	-0.34058	-0.005493	0.13718	-0.017395	-0.14603	0.24399	-0.002136	-0.011292
17.158	0.005035	0.085297	-0.08316	0.011444	-0.021667	-0.076447	-0.032501	0.007019	0.17471	-0.029144	0.000305	-0.005035	0.056152	-0.05188	0.005188	-0.003052	0.003204	-0.17487	1.0213	-0.030975	-0.39047	-0.015564	-0.42038	0.1445	-0.068359	0.006104	0.60074	-0.00885	-0.28214	0.17288	0.002441	-0.005035
17.159	0.031586	0.023499	-0.067596	-0.00946	0.003967	-0.10941	-0.051422	0.000458	0.17532	-0.027771	0.000305	-0.012512	0.063019	-0.095673	0.000305	0.007782	-0.065002	-0.18814	0.93109	-0.019531	-0.38025	0.24658	-0.42374	0.31479	0.13565	0.016937	0.49972	-0.026093	-0.26596	0.11993	-0.002594	-0.015564
